# xmcd
#
# Track frame offsets: 
#        150
#        17316
#        37752
#        55942
#        74694
#        93502
#        112533
#        133067
#        142583
#        157669
#        182847
#        210293
#        234089
#        249661
#        273909
#        295587
#
# Disc length: 4141 seconds
#
# Revision: 0
# Processed by: cddbd v1.5.2PL0 Copyright (c) Steve Scherf et al.
# Submitted via: ExactAudioCopy v0.90b4
#
DISCID=c1102b10
DTITLE=Michelle Malone - Beneath The Devil Moon
DYEAR=2009
DGENRE=Blues
TTITLE0=Grace
TTITLE1=In The Weeds
TTITLE2=My Green Thumb
TTITLE3=Blue Suede
TTITLE4=The Edge (With David Ryan Harris)
TTITLE5=All My Lifetime (With Indigo Girls)
TTITLE6=Medicated Magdalene
TTITLE7=Speaking of Fueled
TTITLE8=Green
TTITLE9=Devil Moon
TTITLE10=Dimming Soul
TTITLE11=Teen Lament
TTITLE12=Green
TTITLE13=Wild Horses - Michelle Malone, Jagger, Mick
TTITLE14=Big Black Bag
TTITLE15=Butter Biscuit
EXTD=
EXTT0=
EXTT1=
EXTT2=
EXTT3=
EXTT4=
EXTT5=
EXTT6=
EXTT7=
EXTT8=
EXTT9=
EXTT10=
EXTT11=
EXTT12=
EXTT13=
EXTT14=
EXTT15=
PLAYORDER=
